<?xml version="1.0" encoding="UTF-8"?>
<!-- Generator: Adobe Illustrator 15.1.0, SVG Export Plug-In  -->
<!DOCTYPE svg PUBLIC "-//W3C//DTD SVG 1.1//EN" "http://www.w3.org/Graphics/SVG/1.1/DTD/svg11.dtd" [
	<!ENTITY ns_flows "http://ns.adobe.com/Flows/1.0/">
]>
<svg version="1.1" xmlns="http://www.w3.org/2000/svg" xmlns:xlink="http://www.w3.org/1999/xlink" xmlns:a="http://ns.adobe.com/AdobeSVGViewerExtensions/3.0/" x="0px" y="0px" width="461px" height="93px" viewBox="-0.569 0.005 461 93" enable-background="new -0.569 0.005 461 93" xml:space="preserve">
<defs>
</defs>
<path d="M120,40.174h15v45h-15V40.174z"/>
<path d="M225,40.174h14.759l0.24-0.24v-14.76h15v15h-14.76l-0.24,0.24v14.52l0.24,0.24H255v30h-15v-29.76l-0.24-0.24H225v30h-15v-60  h15V40.174z"/>
<path d="M330,40.174h15v45h-15V40.174z"/>
<path d="M405,25.174v15h-15v45h-15v-45h-15v-15H405z"/>
<linearGradient id="SVGID_1_" gradientUnits="userSpaceOnUse" x1="119.7349" y1="40.3096" x2="134.7349" y2="25.5596">
	<stop offset="0" style="stop-color:#477DC0"/>
	<stop offset="1" style="stop-color:#B91D83"/>
</linearGradient>
<rect x="120" y="25.174" fill="url(#SVGID_1_)" width="15" height="15"/>
<path d="M300,40.174v-15h-30v60h45v-45H300z M300,70.174h-15v-15h0.008V40.986h7.305v14.188H300V70.174z"/>
<polygon points="195,40.174 195,25.174 157.5,25.174 157.5,32.674 150,32.674 150,85.174 195,85.174 195,70.174 165,70.174   165,40.174 "/>
<path d="M45,77.674v-52.5H0v60h15h15h7.5v7.5h15v-15H45z M30,70.174H15v-30h15V70.174z"/>
<polygon points="105,25.174 90,25.174 90,70.174 75,70.174 75,25.174 60,25.174 60,77.674 67.5,77.674 67.5,85.174 105,85.174 "/>
<linearGradient id="SVGID_2_" gradientUnits="userSpaceOnUse" x1="159.0903" y1="50.8066" x2="174.0897" y2="36.0573" gradientTransform="matrix(0.9863 -0.1651 0.1651 0.9863 179.668 -6.3969)">
	<stop offset="0" style="stop-color:#DEE45A"/>
	<stop offset="0.1007" style="stop-color:#DEDD60"/>
	<stop offset="0.2609" style="stop-color:#E0D070"/>
	<stop offset="0.4603" style="stop-color:#E3B980"/>
	<stop offset="0.6914" style="stop-color:#E7988E"/>
	<stop offset="0.9461" style="stop-color:#ED6A95"/>
	<stop offset="1" style="stop-color:#F05C96"/>
</linearGradient>
<polygon fill="url(#SVGID_2_)" points="357.523,0 342.73,2.477 345.207,17.271 360,14.794 "/>
<linearGradient id="SVGID_3_" gradientUnits="userSpaceOnUse" x1="-16.5156" y1="102.0107" x2="-1.5168" y2="87.2619" gradientTransform="matrix(0.951 -0.3093 0.3093 0.951 316.6304 -65.7359)">
	<stop offset="0" style="stop-color:#4D93CF"/>
	<stop offset="0.0899" style="stop-color:#609BBF"/>
	<stop offset="0.2821" style="stop-color:#7DABA0"/>
	<stop offset="0.4649" style="stop-color:#93B882"/>
	<stop offset="0.6331" style="stop-color:#A4C364"/>
	<stop offset="0.7835" style="stop-color:#B1CC4A"/>
	<stop offset="0.9109" style="stop-color:#B8D238"/>
	<stop offset="1" style="stop-color:#BAD532"/>
</linearGradient>
<polygon fill="url(#SVGID_3_)" points="342.312,17.271 328.048,21.909 332.687,36.174 346.951,31.535 "/>
<polygon points="446.431,40.174 461.431,40.174 461.431,25.174 446.431,25.174 432.597,25.174 431.431,25.174 425.097,25.174   425.097,32.674 417.597,32.674 417.597,40.174 417.597,47.674 417.597,55.174 417.597,62.674 432.597,62.674 446.431,62.674   446.431,70.174 432.597,70.174 417.597,70.174 417.597,85.174 432.597,85.174 446.431,85.174 447.597,85.174 461.431,85.174   461.431,70.174 461.431,62.674 461.431,55.174 461.431,47.674 447.597,47.674 446.431,47.674 432.597,47.674 432.597,40.174 "/>
</svg>